HIERARCHY
ROOT Hips
{
    OFFSET 0.0 0.0 0.0
    CHANNELS 6 Xposition Yposition Zposition Zrotation Xrotation Yrotation
    JOINT LeftHipJoint
    {
        OFFSET 0.1 0.0 0.0
        CHANNELS 3 Zrotation Xrotation Yrotation
        JOINT LeftUpLeg
        {
            OFFSET 118.35451179104456 0.0 0.0
            CHANNELS 3 Zrotation Xrotation Yrotation
            JOINT LeftLeg
            {
                OFFSET 0.0 0.0 -397.3631684382716
                CHANNELS 3 Zrotation Xrotation Yrotation
                JOINT LeftFoot
                {
                    OFFSET 0.0 0.0 -400.4672583494878
                    CHANNELS 3 Zrotation Xrotation Yrotation
                    End Site
                    {
                        OFFSET 0.0 -0.1 0.0
                    }
                }
            }
        }
    }
    JOINT LowerBack
    {
        OFFSET 0.0 0.0 0.1
        CHANNELS 3 Zrotation Xrotation Yrotation
        JOINT Spine
        {
            OFFSET 0.0 0.0 218.9067885614899
            CHANNELS 3 Zrotation Xrotation Yrotation
            JOINT Spine1
            {
                OFFSET 0.0 0.0 252.88705691307214
                CHANNELS 3 Zrotation Xrotation Yrotation
                JOINT LeftShoulder
                {
                    OFFSET 0.1 0.0 0.0
                    CHANNELS 3 Zrotation Xrotation Yrotation
                    JOINT LeftArm
                    {
                        OFFSET 142.30144765302185 0.0 0.0
                        CHANNELS 3 Zrotation Xrotation Yrotation
                        JOINT LeftForeArm
                        {
                            OFFSET 260.7583509252415 0.0 0.0
                            CHANNELS 3 Zrotation Xrotation Yrotation
                            JOINT LeftHand
                            {
                                OFFSET 243.0931719527414 0.0 0.0
                                CHANNELS 3 Zrotation Xrotation Yrotation
                                End Site
                                {
                                    OFFSET 0.1 0.0 0.0
                                }
                            }
                        }
                    }
                }
                JOINT Neck
                {
                    OFFSET 0.0 0.0 0.1
                    CHANNELS 3 Zrotation Xrotation Yrotation
                    JOINT Neck1
                    {
                        OFFSET 0.0 0.0 106.53920504618632
                        CHANNELS 3 Zrotation Xrotation Yrotation
                        End Site
                        {
                            OFFSET 0.0 0.0 112.79275618041072
                        }
                    }
                }
                JOINT RightShoulder
                {
                    OFFSET -0.1 0.0 0.0
                    CHANNELS 3 Zrotation Xrotation Yrotation
                    JOINT RightArm
                    {
                        OFFSET -142.30144765302185 0.0 0.0
                        CHANNELS 3 Zrotation Xrotation Yrotation
                        JOINT RightForeArm
                        {
                            OFFSET -260.7583509252415 0.0 0.0
                            CHANNELS 3 Zrotation Xrotation Yrotation
                            JOINT RightHand
                            {
                                OFFSET -243.0931719527414 0.0 0.0
                                CHANNELS 3 Zrotation Xrotation Yrotation
                                End Site
                                {
                                    OFFSET -0.1 0.0 0.0
                                }
                            }
                        }
                    }
                }
            }
        }
    }
    JOINT RightHipJoint
    {
        OFFSET -0.1 0.0 0.0
        CHANNELS 3 Zrotation Xrotation Yrotation
        JOINT RightUpLeg
        {
            OFFSET -118.35451179104456 0.0 0.0
            CHANNELS 3 Zrotation Xrotation Yrotation
            JOINT RightLeg
            {
                OFFSET 0.0 0.0 -397.3631684382716
                CHANNELS 3 Zrotation Xrotation Yrotation
                JOINT RightFoot
                {
                    OFFSET 0.0 0.0 -400.4672583494878
                    CHANNELS 3 Zrotation Xrotation Yrotation
                    End Site
                    {
                        OFFSET 0.0 -0.1 0.0
                    }
                }
            }
        }
    }
}
MOTION
Frames: 4
Frame Time: 0.03333333333333333
0.0 0.0 790.8115982553359 27.388842247331457 0.7409154386658274 3.602736453470567 0.0 0.0 -7.454425034680117e-17 0.6510204338235392 -18.870405991664384 -0.3052302990820789 -1.1743124342570765 26.885003826055687 0.7861332201090996 0.0 0.0 3.975693351829396e-16 0.0 0.0 -7.454425034680117e-17 0.14675481080629746 -4.4163170732606325 1.9513607728057234 4.026740228105022 -1.219907067549458e-15 -7.527447363843481e-16 0.0 0.0 0.0 -39.63142667864588 23.076993387597593 79.87002522883719 -23.664885048329307 -3.935763374418022e-15 -4.480354486320888e-15 0.0 0.0 1.6399735076296259e-15 0.0 0.0 0.0 -12.662288742888725 6.706420424382713 -4.437583779264687 0.0 0.0 0.0 4.415598103928393 -40.232588195053616 -40.781999575054 121.57410853223499 6.209166373650536e-15 -1.1104102946785003e-14 0.0 0.0 0.0 0.0 0.0 -7.454425034680117e-17 0.33661504013138377 -10.08063408562001 0.5636550674316919 -0.49961874508701154 20.119452653992354 -2.722059122945624 0.0 0.0 0.0
0.0 0.0 790.8115982553359 27.43898561894812 0.6018675918238239 3.717709247316805 0.0 0.0 8.696829207126804e-17 0.6454706193176163 -18.787012139276197 -0.4053276706074996 -1.2282601739227623 27.02845201540437 0.801591572933324 0.0 0.0 3.975693351829396e-16 0.0 0.0 8.696829207126804e-17 0.14674248158081354 -4.433222025141333 1.9555325991067392 3.974896614989989 4.1111810428192586e-16 3.8354224915548058e-16 0.0 0.0 1.987846675914698e-16 -39.42623503748672 23.132597637501753 79.9597738805461 -23.386228558285644 -3.678575745630023e-15 2.0806287518571007e-15 0.0 0.0 -3.0811623476677818e-15 0.0 0.0 1.987846675914698e-16 -12.638942036899978 6.838302121272059 -4.601830552475223 0.0 0.0 1.987846675914698e-16 4.263592131831419 -40.673321332040274 -40.68250605227686 122.07543098750652 -2.782790213486351e-15 -1.5401320428794672e-15 -3.975693351829396e-16 0.0 0.0 0.0 0.0 8.696829207126804e-17 0.33290109470788964 -10.012359102238243 0.49085663895454723 -0.5268017855704427 20.240060125992112 -2.7432256919376163 0.0 0.0 0.0
0.0 0.0 790.8115982553359 27.506162219683066 0.4987052756180317 3.880125463878562 0.0 0.0 1.7393658414253607e-16 0.6232744937464076 -18.74345344055388 -0.5376061604711263 -1.2642451076428876 27.054710742628522 0.786548689201763 0.0 0.0 -3.975693351829396e-16 0.0 0.0 1.7393658414253607e-16 0.1432988760055258 -4.472790224599448 1.9163371077846485 3.961892924544699 1.3742838999732818e-17 3.9733173879521876e-16 -6.3611093629270335e-15 1.987846675914698e-16 1.987846675914698e-16 -39.0147445907269 23.208878373486684 80.09148073121533 -23.140543410084703 -1.3616366540706173e-15 -9.206713844935569e-15 0.0 0.0 2.5842006786891076e-15 -6.3611093629270335e-15 1.987846675914698e-16 1.987846675914698e-16 -12.676820535406012 6.985171152134524 -4.774155760144985 -6.3611093629270335e-15 1.987846675914698e-16 1.987846675914698e-16 4.119765693477962 -41.087672205693046 -40.57496316963373 122.31486701401018 -2.2207501300245793e-15 -1.574695116219274e-14 0.0 0.0 0.0 0.0 0.0 1.7393658414253607e-16 0.3186704679591831 -9.907949414185044 0.39079360834672405 -0.5427263087353565 20.30869133007279 -2.7532165410366685 0.0 0.0 0.0
0.0 0.0 790.8115982553359 27.531340628097862 0.35879441873255896 3.9919743739420426 0.0 0.0 4.969616689786745e-17 0.613218943200031 -18.694366667230277 -0.5960683620368668 -1.278549082677312 27.019180214278066 0.7617888365924247 0.0 0.0 -7.951386703658792e-16 0.0 0.0 4.969616689786745e-17 0.1390382690463862 -4.399583732405861 1.9227716941906856 3.9487117081387018 4.109140412407533e-17 1.191999950925902e-15 0.0 0.0 -1.987846675914698e-16 -38.62913335550914 23.226524545508934 80.16549071700932 -22.798279910513404 2.4106256833707225e-15 4.136155627506671e-15 -1.7241821476758433e-32 1.5902773407317582e-15 1.242404172446686e-15 0.0 0.0 -1.987846675914698e-16 -12.767710231253444 7.047828259490882 -4.907099448256433 0.0 0.0 -1.987846675914698e-16 4.249401358749512 -41.36716276852713 -40.497965914255914 122.54260657196397 8.635640363250818e-15 -2.520543626051577e-15 0.0 0.0 0.0 0.0 0.0 4.969616689786745e-17 0.3079566219643913 -9.713519077904934 0.2914631564180196 -0.5696504875164129 20.303448790972624 -2.7134176969630217 0.0 0.0 0.0
